HIERARCHY
ROOT Hips
{
    OFFSET 0.000000 0.000000 0.000000
    CHANNELS 6 Xposition Yposition Zposition Zrotation Xrotation Yrotation
    JOINT Spine
    {
        OFFSET -0.000000 7.181133 0.000000
        CHANNELS 3 Zrotation Xrotation Yrotation
        JOINT Spine1
        {
            OFFSET -0.000000 18.267374 0.000000
            CHANNELS 3 Zrotation Xrotation Yrotation
            JOINT Neck
            {
                OFFSET -0.000000 20.018869 0.000000
                CHANNELS 3 Zrotation Xrotation Yrotation
                JOINT Head
                {
                    OFFSET -0.000000 13.574094 1.751496
                    CHANNELS 3 Zrotation Xrotation Yrotation
                    End Site
                    {
                        OFFSET -0.000000 17.514959 0.000000
                    }
                }
            }
            JOINT LeftShoulder
            {
                OFFSET 3.455033 15.625459 -0.068584
                CHANNELS 3 Zrotation Xrotation Yrotation
                JOINT LeftArm
                {
                    OFFSET 13.322371 0.000000 0.000000
                    CHANNELS 3 Zrotation Xrotation Yrotation
                    JOINT LeftForeArm
                    {
                        OFFSET 25.999905 0.000000 0.000000
                        CHANNELS 3 Zrotation Xrotation Yrotation
                        JOINT LeftHand
                        {
                            OFFSET 21.760029 0.000000 0.000000
                            CHANNELS 3 Zrotation Xrotation Yrotation
                            End Site
                            {
                                OFFSET 13.136220 0.000000 0.000000
                            }
                        }
                    }
                }
            }
            JOINT RightShoulder
            {
                OFFSET -3.548261 15.625459 -0.068584
                CHANNELS 3 Zrotation Xrotation Yrotation
                JOINT RightArm
                {
                    OFFSET -13.322371 0.000000 0.000000
                    CHANNELS 3 Zrotation Xrotation Yrotation
                    JOINT RightForeArm
                    {
                        OFFSET -25.999905 0.000000 0.000000
                        CHANNELS 3 Zrotation Xrotation Yrotation
                        JOINT RightHand
                        {
                            OFFSET -21.760029 0.000000 0.000000
                            CHANNELS 3 Zrotation Xrotation Yrotation
                            End Site
                            {
                                OFFSET -13.136220 0.000000 0.000000
                            }
                        }
                    }
                }
            }
        }
    }
    JOINT LeftUpLeg
    {
        OFFSET 8.757480 0.000000 0.000000
        CHANNELS 3 Zrotation Xrotation Yrotation
        JOINT LeftLeg
        {
            OFFSET -0.000000 -43.045837 0.000000
            CHANNELS 3 Zrotation Xrotation Yrotation
            JOINT LeftFoot
            {
                OFFSET -0.000000 -33.977207 0.000000
                CHANNELS 3 Zrotation Xrotation Yrotation
                JOINT LeftToeBase
                {
                    OFFSET -0.000000 -5.692361 13.136220
                    CHANNELS 3 Zrotation Xrotation Yrotation
                    End Site
                    {
                        OFFSET -0.000000 0.000000 3.502991
                    }
                }
            }
        }
    }
    JOINT RightUpLeg
    {
        OFFSET -8.757480 0.000000 0.000000
        CHANNELS 3 Zrotation Xrotation Yrotation
        JOINT RightLeg
        {
            OFFSET -0.000000 -43.045837 0.000000
            CHANNELS 3 Zrotation Xrotation Yrotation
            JOINT RightFoot
            {
                OFFSET -0.000000 -33.977207 0.000000
                CHANNELS 3 Zrotation Xrotation Yrotation
                JOINT RightToeBase
                {
                    OFFSET -0.000000 -5.692361 13.136220
                    CHANNELS 3 Zrotation Xrotation Yrotation
                    End Site
                    {
                        OFFSET -0.000000 0.000000 3.502991
                    }
                }
            }
        }
    }
}
MOTION
Frames:    4
Frame Time:    0.008333
0.271595    83.257782    -5.552791    -1.675599    -1.850993    5.017750    3.008217    -0.602004    -0.304704    -3.820643    5.847959    0.088715    4.421420    -5.378089    0.867178    4.570238    9.384440    0.317979    17.420401    -4.019194    1.193348    -13.430159    12.139100    -11.865003    -14.296921    4.330653    11.564517    22.577431    4.759920    -5.130682    -16.564432    4.390929    -2.083756    22.514294    10.571560    13.742628    9.640306    -0.184152    -12.319050    -22.250795    0.024021    4.241363    3.428348    11.862501    -6.848362    -4.801570    -6.075501    -1.047876    6.118792    -5.223796    10.272105    0.000000    0.000000    0.000000    -1.572137    9.352179    1.168030    5.640267    -4.983612    0.943746    -4.341451    -3.495553    -15.088910    0.000000    0.000000    0.000000    
0.276413    83.257111    -5.552877    -1.676111    -1.848861    5.023505    3.006631    -0.586478    -0.293050    -3.802439    5.759257    0.089165    4.348948    -5.220603    0.858602    4.613863    9.312877    0.302756    17.381891    -3.948936    1.098388    -13.425236    12.096442    -11.811911    -14.250832    4.350344    11.547810    22.330708    4.785408    -5.124607    -16.592596    4.482927    -2.044799    22.521971    10.570467    13.734768    9.637024    -0.192759    -12.331362    -22.194366    0.015249    4.257004    3.425934    11.865182    -6.842536    -4.799771    -6.088045    -1.065336    6.124919    -5.210128    10.273309    0.000000    0.000000    0.000000    -1.575114    9.351741    1.161223    5.640611    -4.985835    0.948929    -4.338616    -3.496052    -15.091263    0.000000    0.000000    0.000000    
0.283460    83.258492    -5.547061    -1.678010    -1.852381    5.024175    3.006503    -0.574450    -0.273864    -3.759832    5.651475    0.089507    4.151127    -4.981538    0.872934    4.802554    9.163870    0.276016    17.299793    -3.825894    0.965917    -13.410995    12.041306    -11.728250    -14.176163    4.345664    11.508957    22.078054    4.784626    -5.100387    -16.657621    4.587712    -1.986964    22.525618    10.644622    13.725109    9.651937    -0.230256    -12.356335    -22.080538    -0.013199    4.252026    3.421823    11.879103    -6.826319    -4.795380    -6.098911    -1.103863    6.115414    -5.203476    10.294209    0.000000    0.000000    0.000000    -1.579638    9.363787    1.178172    5.645925    -4.998601    0.931437    -4.335964    -3.483443    -15.094846    0.000000    0.000000    0.000000    
0.285641    83.258728    -5.546836    -1.683580    -1.849188    5.033869    2.993038    -0.558641    -0.248365    -3.705101    5.531469    0.091810    4.064691    -4.727424    0.857796    4.832636    9.003907    0.262286    17.243689    -3.699138    0.801081    -13.408880    11.934284    -11.651873    -14.148687    4.333661    11.510755    21.959351    4.782014    -5.066903    -16.723150    4.711673    -1.937807    22.568802    10.696820    13.691745    9.583859    -0.279708    -12.340456    -21.964062    -0.061258    4.223212    3.430750    11.876832    -6.834268    -4.800531    -6.103639    -1.119990    6.123965    -5.199843    10.306041    0.000000    0.000000    0.000000    -1.574326    9.361787    1.179253    5.645248    -4.998695    0.929765    -4.351454    -3.481499    -15.099155    0.000000    0.000000    0.000000    
